<svg width="25" height="24" viewBox="0 0 25 24" fill="none" xmlns="http://www.w3.org/2000/svg">
<path d="M20.7981 17.0306L17.7981 20.0306C17.6573 20.1713 17.4665 20.2504 17.2674 20.2504C17.0684 20.2504 16.8775 20.1713 16.7368 20.0306C16.5961 19.8899 16.517 19.699 16.517 19.5C16.517 19.301 16.5961 19.1101 16.7368 18.9694L18.4571 17.25H5.26744C5.06852 17.25 4.87776 17.171 4.73711 17.0303C4.59645 16.8897 4.51744 16.6989 4.51744 16.5C4.51744 16.3011 4.59645 16.1103 4.73711 15.9697C4.87776 15.829 5.06852 15.75 5.26744 15.75H18.4571L16.7368 14.0306C16.5961 13.8899 16.517 13.699 16.517 13.5C16.517 13.301 16.5961 13.1101 16.7368 12.9694C16.8775 12.8286 17.0684 12.7496 17.2674 12.7496C17.4665 12.7496 17.6573 12.8286 17.7981 12.9694L20.7981 15.9694C20.8678 16.039 20.9231 16.1217 20.9609 16.2128C20.9986 16.3038 21.018 16.4014 21.018 16.5C21.018 16.5986 20.9986 16.6961 20.9609 16.7872C20.9231 16.8782 20.8678 16.961 20.7981 17.0306ZM7.73681 11.0306C7.87754 11.1713 8.06841 11.2504 8.26744 11.2504C8.46646 11.2504 8.65733 11.1713 8.79806 11.0306C8.93879 10.8899 9.01785 10.699 9.01785 10.5C9.01785 10.301 8.93879 10.1101 8.79806 9.96936L7.07775 8.24999H20.2674C20.4663 8.24999 20.6571 8.17097 20.7978 8.03032C20.9384 7.88967 21.0174 7.6989 21.0174 7.49999C21.0174 7.30108 20.9384 7.11031 20.7978 6.96966C20.6571 6.82901 20.4663 6.74999 20.2674 6.74999H7.07775L8.79806 5.03061C8.93879 4.88988 9.01785 4.69901 9.01785 4.49999C9.01785 4.30097 8.93879 4.1101 8.79806 3.96936C8.65733 3.82863 8.46646 3.74957 8.26744 3.74957C8.06841 3.74957 7.87754 3.82863 7.73681 3.96936L4.73681 6.96936C4.66708 7.03902 4.61176 7.12174 4.57402 7.21278C4.53627 7.30383 4.51685 7.40143 4.51685 7.49999C4.51685 7.59855 4.53627 7.69615 4.57402 7.7872C4.61176 7.87824 4.66708 7.96096 4.73681 8.03061L7.73681 11.0306Z"  fill="black"/>
</svg>
