<svg width="25" height="24" viewBox="0 0 25 24" fill="none" xmlns="http://www.w3.org/2000/svg">
<path d="M12.7675 2.25C10.8391 2.25 8.95403 2.82183 7.35065 3.89317C5.74727 4.96451 4.49759 6.48726 3.75963 8.26884C3.02168 10.0504 2.8286 12.0108 3.2048 13.9021C3.58101 15.7934 4.50961 17.5307 5.87317 18.8943C7.23673 20.2579 8.97402 21.1865 10.8653 21.5627C12.7566 21.9389 14.717 21.7458 16.4986 21.0078C18.2802 20.2699 19.8029 19.0202 20.8743 17.4168C21.9456 15.8134 22.5175 13.9284 22.5175 12C22.5145 9.41505 21.4863 6.93683 19.6585 5.109C17.8306 3.28116 15.3524 2.25298 12.7675 2.25ZM21.0175 12C21.0181 12.7608 20.913 13.5181 20.7053 14.25H17.095C17.325 12.7588 17.325 11.2412 17.095 9.75H20.7053C20.913 10.4819 21.0181 11.2392 21.0175 12ZM10.33 15.75H15.205C14.7247 17.3237 13.8909 18.7667 12.7675 19.9688C11.6444 18.7664 10.8107 17.3235 10.33 15.75ZM9.96434 14.25C9.70684 12.7611 9.70684 11.2389 9.96434 9.75H15.5781C15.8356 11.2389 15.8356 12.7611 15.5781 14.25H9.96434ZM4.51746 12C4.51681 11.2392 4.62188 10.4819 4.82965 9.75H8.43996C8.20996 11.2412 8.20996 12.7588 8.43996 14.25H4.82965C4.62188 13.5181 4.51681 12.7608 4.51746 12ZM15.205 8.25H10.33C10.8102 6.67632 11.644 5.2333 12.7675 4.03125C13.8905 5.23361 14.7242 6.67653 15.205 8.25ZM20.1109 8.25H16.7715C16.3506 6.70585 15.6413 5.25532 14.6809 3.975C15.8413 4.25375 16.9276 4.7801 17.8655 5.51799C18.8034 6.25588 19.5706 7.18784 20.1146 8.25H20.1109ZM10.854 3.975C9.89365 5.25532 9.18429 6.70585 8.7634 8.25H5.42027C5.96428 7.18784 6.73152 6.25588 7.66942 5.51799C8.60731 4.7801 9.69367 4.25375 10.854 3.975ZM5.42027 15.75H8.7634C9.18429 17.2941 9.89365 18.7447 10.854 20.025C9.69367 19.7463 8.60731 19.2199 7.66942 18.482C6.73152 17.7441 5.96428 16.8122 5.42027 15.75ZM14.6809 20.025C15.6413 18.7447 16.3506 17.2941 16.7715 15.75H20.1146C19.5706 16.8122 18.8034 17.7441 17.8655 18.482C16.9276 19.2199 15.8413 19.7463 14.6809 20.025Z" fill="black"/>
</svg>
