<svg width="25" height="24" viewBox="0 0 25 24" fill="none" xmlns="http://www.w3.org/2000/svg">
<g clip-path="url(#clip0_160_310)">
<path d="M18.0175 8.39719V7.875C18.0175 5.52375 14.4709 3.75 9.76746 3.75C5.06402 3.75 1.51746 5.52375 1.51746 7.875V11.625C1.51746 13.5834 3.97839 15.1397 7.51746 15.6056V16.125C7.51746 18.4762 11.064 20.25 15.7675 20.25C20.4709 20.25 24.0175 18.4762 24.0175 16.125V12.375C24.0175 10.4344 21.6343 8.87625 18.0175 8.39719ZM22.5175 12.375C22.5175 13.6144 19.6309 15 15.7675 15C15.4178 15 15.0709 14.9878 14.7287 14.9653C16.7509 14.2284 18.0175 13.0312 18.0175 11.625V9.91313C20.8178 10.3303 22.5175 11.4628 22.5175 12.375ZM7.51746 14.0859V11.8556C8.2635 11.9528 9.01511 12.0011 9.76746 12C10.5198 12.0011 11.2714 11.9528 12.0175 11.8556V14.0859C11.2725 14.196 10.5205 14.2508 9.76746 14.25C9.01444 14.2508 8.26239 14.196 7.51746 14.0859ZM16.5175 10.3059V11.625C16.5175 12.4116 15.354 13.2562 13.5175 13.7691V11.5781C14.7278 11.2847 15.7525 10.8478 16.5175 10.3059ZM9.76746 5.25C13.6309 5.25 16.5175 6.63562 16.5175 7.875C16.5175 9.11438 13.6309 10.5 9.76746 10.5C5.90402 10.5 3.01746 9.11438 3.01746 7.875C3.01746 6.63562 5.90402 5.25 9.76746 5.25ZM3.01746 11.625V10.3059C3.78246 10.8478 4.80714 11.2847 6.01746 11.5781V13.7691C4.18089 13.2562 3.01746 12.4116 3.01746 11.625ZM9.01746 16.125V15.7341C9.26402 15.7434 9.51339 15.75 9.76746 15.75C10.1312 15.75 10.4865 15.7378 10.8353 15.7172C11.2227 15.8559 11.6173 15.9736 12.0175 16.0697V18.2691C10.1809 17.7562 9.01746 16.9116 9.01746 16.125ZM13.5175 18.5859V16.35C14.2633 16.4503 15.0149 16.5004 15.7675 16.5C16.5198 16.5011 17.2714 16.4528 18.0175 16.3556V18.5859C16.5254 18.8047 15.0095 18.8047 13.5175 18.5859ZM19.5175 18.2691V16.0781C20.7278 15.7847 21.7525 15.3478 22.5175 14.8059V16.125C22.5175 16.9116 21.354 17.7562 19.5175 18.2691Z"  fill="black"/>
</g>
<defs>
<clipPath id="clip0_160_310">
<rect width="24" height="24" fill="white" transform="translate(0.767456)"/>
</clipPath>
</defs>
</svg>
